HIERARCHY
ROOT Hips
{
	OFFSET 0.000000 0.000000 0.000000
	CHANNELS 6 Xposition Yposition Zposition Zrotation Yrotation Xrotation
	JOINT LeftUpLeg
	{
		OFFSET 0.103459 1.857827 10.548521
		CHANNELS 6 Xposition Yposition Zposition Zrotation Yrotation Xrotation
		JOINT LeftLeg
		{
			OFFSET 43.499979 0.000107 0.000090
			CHANNELS 6 Xposition Yposition Zposition Zrotation Yrotation Xrotation
			JOINT LeftFoot
			{
				OFFSET 42.372168 0.000034 0.000010
				CHANNELS 6 Xposition Yposition Zposition Zrotation Yrotation Xrotation
				JOINT LeftToe
				{
					OFFSET 17.299924 -0.000089 0.000018
					CHANNELS 6 Xposition Yposition Zposition Zrotation Yrotation Xrotation
					End Site
					{
						OFFSET 6.000000 0.000000 0.000000
					}
				}
			}
		}
	}
	JOINT RightUpLeg
	{
		OFFSET 0.103456 1.857863 -10.548456
		CHANNELS 6 Xposition Yposition Zposition Zrotation Yrotation Xrotation
		JOINT RightLeg
		{
			OFFSET 43.500042 -0.000002 0.000029
			CHANNELS 6 Xposition Yposition Zposition Zrotation Yrotation Xrotation
			JOINT RightFoot
			{
				OFFSET 42.372205 0.000033 0.000070
				CHANNELS 6 Xposition Yposition Zposition Zrotation Yrotation Xrotation
				JOINT RightToe
				{
					OFFSET 17.299951 -0.000065 0.000070
					CHANNELS 6 Xposition Yposition Zposition Zrotation Yrotation Xrotation
					End Site
					{
						OFFSET 6.000000 0.000000 0.000000
					}
				}
			}
		}
	}
	JOINT Spine
	{
		OFFSET 6.901935 -2.603664 0.000033
		CHANNELS 6 Xposition Yposition Zposition Zrotation Yrotation Xrotation
		JOINT Spine1
		{
			OFFSET 12.588142 0.000010 -0.000051
			CHANNELS 6 Xposition Yposition Zposition Zrotation Yrotation Xrotation
			JOINT Spine2
			{
				OFFSET 12.343166 -0.000098 0.000026
				CHANNELS 6 Xposition Yposition Zposition Zrotation Yrotation Xrotation
				JOINT Neck
				{
					OFFSET 25.832894 0.000061 0.000061
					CHANNELS 6 Xposition Yposition Zposition Zrotation Yrotation Xrotation
					JOINT Head
					{
						OFFSET 11.766657 -0.000023 -0.000040
						CHANNELS 6 Xposition Yposition Zposition Zrotation Yrotation Xrotation
						End Site
						{
							OFFSET 12.000000 0.000000 0.000000
						}
					}
				}
				JOINT LeftShoulder
				{
					OFFSET 19.745926 -1.480308 6.000100
					CHANNELS 6 Xposition Yposition Zposition Zrotation Yrotation Xrotation
					JOINT LeftArm
					{
						OFFSET 11.284141 -0.000067 -0.000035
						CHANNELS 6 Xposition Yposition Zposition Zrotation Yrotation Xrotation
						JOINT LeftForeArm
						{
							OFFSET 33.000033 0.000026 -0.000005
							CHANNELS 6 Xposition Yposition Zposition Zrotation Yrotation Xrotation
							JOINT LeftHand
							{
								OFFSET 25.200056 0.000059 -0.000020
								CHANNELS 6 Xposition Yposition Zposition Zrotation Yrotation Xrotation
								End Site
								{
									OFFSET 9.000000 0.000000 0.000000
								}
							}
						}
					}
				}
				JOINT RightShoulder
				{
					OFFSET 19.746108 -1.480276 -5.999995
					CHANNELS 6 Xposition Yposition Zposition Zrotation Yrotation Xrotation
					JOINT RightArm
					{
						OFFSET 11.284248 -0.000015 -0.000063
						CHANNELS 6 Xposition Yposition Zposition Zrotation Yrotation Xrotation
						JOINT RightForeArm
						{
							OFFSET 33.000071 0.000058 0.000097
							CHANNELS 6 Xposition Yposition Zposition Zrotation Yrotation Xrotation
							JOINT RightHand
							{
								OFFSET 25.199705 0.000114 0.000349
								CHANNELS 6 Xposition Yposition Zposition Zrotation Yrotation Xrotation
								End Site
								{
									OFFSET 9.000000 0.000000 0.000000
								}
							}
						}
					}
				}
			}
		}
	}
}
MOTION
Frames: 8
Frame Time: 0.0333333
0.0000 92.5000 0.0000 89.6114 -12.3476 92.3098 0.1035 1.8578 10.5485 -178.4730 -4.0596 172.9941 43.5000 0.0001 0.0001 -108.1968 11.7258 -6.9881 42.3722 0.0000 0.0000 -176.7465 7.7887 -9.8830 17.2999 -0.0001 0.0000 21.4546 0.0031 -0.0001 0.1035 1.8579 -10.5485 -176.2050 2.0504 -176.8267 43.5000 -0.0000 0.0000 -36.5953 3.4300 5.5156 42.3722 0.0000 0.0001 97.5221 -2.9922 5.6077 17.3000 -0.0001 0.0001 21.4546 -0.0031 0.0000 6.9019 -2.6037 0.0000 1.4802 0.0877 0.3608 12.5881 0.0000 -0.0001 4.9396 0.6528 0.8288 12.3432 -0.0001 0.0000 -3.3678 0.2447 0.8037 25.8329 0.0001 0.0001 12.9339 7.2034 -2.4309 11.7667 -0.0000 -0.0000 14.9072 -14.1441 -0.3639 19.7459 -1.4803 6.0001 -58.0786 -84.1378 -120.2499 11.2841 -0.0001 -0.0000 -37.3506 76.5733 -39.0877 33.0000 0.0000 -0.0000 -93.6172 -18.8732 -25.1789 25.2001 0.0001 -0.0000 12.8595 1.5532 18.3587 19.7461 -1.4803 -6.0000 -80.3609 80.1375 98.2482 11.2842 -0.0000 -0.0001 -17.3810 -82.7933 24.6822 33.0001 0.0001 0.0001 -102.0530 15.8323 21.8566 25.1997 0.0001 0.0003 12.2982 10.3537 -7.4738
0.7708 94.6679 9.8333 91.1284 -12.4092 95.3404 0.1035 1.8578 10.5485 159.3332 -0.6206 175.6148 43.5000 0.0001 0.0001 -99.3635 11.5254 -5.4829 42.3722 0.0000 0.0000 150.4912 3.3768 -9.9277 17.2999 -0.0001 0.0000 21.4546 0.0031 -0.0001 0.1035 1.8579 -10.5485 -153.9579 1.1234 -173.5204 43.5000 -0.0000 0.0000 -36.5953 3.4300 5.5156 42.3722 0.0000 0.0001 119.3011 -3.2322 8.6945 17.3000 -0.0001 0.0001 21.4546 -0.0031 0.0000 6.9019 -2.6037 0.0000 1.5537 -1.3061 -3.0331 12.5881 0.0000 -0.0001 4.9152 0.9435 -2.0473 12.3432 -0.0001 0.0000 -3.3793 0.2851 -0.1590 25.8329 0.0001 0.0001 13.4163 6.1682 1.3067 11.7667 -0.0000 -0.0000 14.9072 -14.1441 -0.3639 19.7459 -1.4803 6.0001 -71.4901 -80.6993 -106.6799 11.2841 -0.0001 -0.0000 -75.3167 58.5238 -80.8895 33.0000 0.0000 -0.0000 -101.4492 -21.3048 -26.3863 25.2001 0.0001 -0.0000 12.8595 1.5532 18.3587 19.7461 -1.4803 -6.0000 -72.8436 83.8535 105.7875 11.2842 -0.0000 -0.0001 65.6531 -67.3167 -60.1968 33.0001 0.0001 0.0001 -94.1388 14.3648 20.0884 25.1997 0.0001 0.0003 12.2982 10.3537 -7.4738
1.3509 96.2995 19.6667 92.2631 -12.5632 97.6197 0.1035 1.8578 10.5485 142.7507 3.0575 175.8852 43.5000 0.0001 0.0001 -75.1743 9.8526 -1.7059 42.3722 0.0000 0.0000 104.3008 -1.4058 -6.0709 17.2999 -0.0001 0.0000 21.4546 0.0031 -0.0001 0.1035 1.8579 -10.5485 -137.4307 -1.2777 -171.5530 43.5000 -0.0000 0.0000 -36.5953 3.4300 5.5156 42.3722 0.0000 0.0001 135.6784 -4.1637 10.8380 17.3000 -0.0001 0.0001 21.4546 -0.0031 0.0000 6.9019 -2.6037 0.0000 1.6074 -2.3545 -5.5887 12.5881 0.0000 -0.0001 4.8873 1.1614 -4.2121 12.3432 -0.0001 0.0000 -3.3884 0.3155 -0.8835 25.8329 0.0001 0.0001 13.7335 5.3697 4.1092 11.7667 -0.0000 -0.0000 14.9072 -14.1441 -0.3639 19.7459 -1.4803 6.0001 -76.3357 -77.9461 -101.7144 11.2841 -0.0001 -0.0000 -81.7764 42.2220 -90.4939 33.0000 0.0000 -0.0000 -107.3982 -23.2247 -27.0649 25.2001 0.0001 -0.0000 12.8595 1.5532 18.3587 19.7461 -1.4803 -6.0000 -56.9629 86.4509 121.6846 11.2842 -0.0000 -0.0001 72.9346 -50.4727 -68.9552 33.0001 0.0001 0.0001 -88.1848 13.4232 18.6366 25.1997 0.0001 0.0003 12.2982 10.3537 -7.4738
1.5968 96.9911 29.5000 92.7409 -12.6562 98.5850 0.1035 1.8578 10.5485 135.7116 4.7209 175.4622 43.5000 0.0001 0.0001 -42.0755 5.3700 1.7129 42.3722 0.0000 0.0000 55.8199 -1.8264 0.3158 17.2999 -0.0001 0.0000 21.4546 0.0031 -0.0001 0.1035 1.8579 -10.5485 -130.4913 -2.6709 -171.0257 43.5000 -0.0000 0.0000 -36.5953 3.4300 5.5156 42.3722 0.0000 0.0001 142.6157 -4.7352 11.6510 17.3000 -0.0001 0.0001 21.4546 -0.0031 0.0000 6.9019 -2.6037 0.0000 1.6297 -2.7988 -6.6724 12.5881 0.0000 -0.0001 4.8730 1.2534 -5.1299 12.3432 -0.0001 0.0000 -3.3924 0.3283 -1.1906 25.8329 0.0001 0.0001 13.8560 5.0267 5.2947 11.7667 -0.0000 -0.0000 14.9072 -14.1441 -0.3639 19.7459 -1.4803 6.0001 -77.7712 -76.7604 -100.2280 11.2841 -0.0001 -0.0000 -83.0574 35.1709 -93.2248 33.0000 0.0000 -0.0000 -109.9389 -24.0564 -27.2890 25.2001 0.0001 -0.0000 12.8595 1.5532 18.3587 19.7461 -1.4803 -6.0000 -41.3248 87.3546 137.3297 11.2842 -0.0000 -0.0001 74.2835 -43.2260 -70.9751 33.0001 0.0001 0.0001 -85.6605 13.0692 17.9939 25.1997 0.0001 0.0003 12.2982 10.3537 -7.4738
1.4477 96.5717 39.3333 92.4515 -12.5978 97.9997 0.1035 1.8578 10.5485 139.9824 3.7109 175.7586 43.5000 0.0001 0.0001 -37.7247 4.6527 1.9522 42.3722 0.0000 0.0000 54.5880 -1.7661 0.4723 17.2999 -0.0001 0.0000 21.4546 0.0031 -0.0001 0.1035 1.8579 -10.5485 -134.6949 -1.8026 -171.3190 43.5000 -0.0000 0.0000 -66.3878 2.0822 5.0825 42.3722 0.0000 0.0001 175.1801 -8.4962 14.3073 17.3000 -0.0001 0.0001 21.4546 -0.0031 0.0000 6.9019 -2.6037 0.0000 1.6162 -2.5294 -6.0153 12.5881 0.0000 -0.0001 4.8818 1.1976 -4.5734 12.3432 -0.0001 0.0000 -3.3900 0.3205 -1.0043 25.8329 0.0001 0.0001 13.7826 5.2350 4.5760 11.7667 -0.0000 -0.0000 14.9072 -14.1441 -0.3639 19.7459 -1.4803 6.0001 -76.9336 -77.4804 -101.0965 11.2841 -0.0001 -0.0000 -82.3480 39.4523 -91.6260 33.0000 0.0000 -0.0000 -108.3968 -23.5510 -27.1577 25.2001 0.0001 -0.0000 12.8595 1.5532 18.3587 19.7461 -1.4803 -6.0000 -51.8789 86.8327 126.7713 11.2842 -0.0000 -0.0001 73.5330 -47.6242 -69.8138 33.0001 0.0001 0.0001 -87.1912 13.2806 18.3854 25.1997 0.0001 0.0003 12.2982 10.3537 -7.4738
0.9405 95.1450 49.1667 91.4612 -12.4447 96.0072 0.1035 1.8578 10.5485 154.4793 0.3920 175.8680 43.5000 0.0001 0.0001 -37.7247 4.6527 1.9522 42.3722 0.0000 0.0000 69.1061 -2.2574 -1.4354 17.2999 -0.0001 0.0000 21.4546 0.0031 -0.0001 0.1035 1.8579 -10.5485 -149.1013 0.5632 -172.8626 43.5000 -0.0000 0.0000 -93.1787 0.8267 5.3152 42.3722 0.0000 0.0001 -165.9400 -11.1352 14.7478 17.3000 -0.0001 0.0001 21.4546 -0.0031 0.0000 6.9019 -2.6037 0.0000 1.5695 -1.6128 -3.7803 12.5881 0.0000 -0.0001 4.9079 1.0074 -2.6804 12.3432 -0.0001 0.0000 -3.3819 0.2940 -0.3708 25.8329 0.0001 0.0001 13.5132 5.9363 2.1271 11.7667 -0.0000 -0.0000 14.9072 -14.1441 -0.3639 19.7459 -1.4803 6.0001 -73.1825 -79.9025 -104.9525 11.2841 -0.0001 -0.0000 -77.9395 53.8318 -84.3999 33.0000 0.0000 -0.0000 -103.1831 -21.8594 -26.6060 25.2001 0.0001 -0.0000 12.8595 1.5532 18.3587 19.7461 -1.4803 -6.0000 -69.8035 84.6452 108.8324 11.2842 -0.0000 -0.0001 68.7768 -62.4532 -63.7406 33.0001 0.0001 0.0001 -92.3976 14.0744 19.6737 25.1997 0.0001 0.0003 12.2982 10.3537 -7.4738
0.2005 93.0640 59.0000 90.0065 -12.3479 93.0983 0.1035 1.8578 10.5485 175.7286 -3.3856 173.8707 43.5000 0.0001 0.0001 -37.7247 4.6527 1.9522 42.3722 0.0000 0.0000 90.2960 -2.0872 -4.2954 17.2999 -0.0001 0.0000 21.4546 0.0031 -0.0001 0.1035 1.8579 -10.5485 -170.3969 2.0674 -175.9652 43.5000 -0.0000 0.0000 -105.9778 0.2962 5.6251 42.3722 0.0000 0.0001 -171.0433 -10.4118 14.7162 17.3000 -0.0001 0.0001 21.4546 -0.0031 0.0000 6.9019 -2.6037 0.0000 1.4996 -0.2750 -0.5220 12.5881 0.0000 -0.0001 4.9347 0.7285 0.0806 12.3432 -0.0001 0.0000 -3.3707 0.2552 0.5532 25.8329 0.0001 0.0001 13.0661 6.9372 -1.4569 11.7667 -0.0000 -0.0000 14.9072 -14.1441 -0.3639 19.7459 -1.4803 6.0001 -62.8793 -83.2862 -115.4080 11.2841 -0.0001 -0.0000 -54.7307 72.9308 -57.4450 33.0000 0.0000 -0.0000 -95.6486 -19.4905 -25.5250 25.2001 0.0001 -0.0000 12.8595 1.5532 18.3587 19.7461 -1.4803 -6.0000 -79.0116 81.1156 99.6032 11.2842 -0.0000 -0.0001 26.9044 -81.6249 -20.0780 33.0001 0.0001 0.0001 -99.9932 15.4280 21.4158 25.1997 0.0001 0.0003 12.2982 10.3537 -7.4738
-0.5890 94.1566 68.8333 88.4520 -12.4106 89.9944 0.1035 1.8578 10.5485 -161.3859 -4.9430 169.9693 43.5000 0.0001 0.0001 -37.7247 4.6527 1.9522 42.3722 0.0000 0.0000 112.8607 -0.7832 -7.0565 17.2999 -0.0001 0.0000 21.4546 0.0031 -0.0001 0.1035 1.8579 -10.5485 166.7177 1.0261 -179.0074 43.5000 -0.0000 0.0000 -101.6200 0.4689 5.5063 42.3722 0.0000 0.0001 161.2306 -6.7049 13.4355 17.3000 -0.0001 0.0001 21.4546 -0.0031 0.0000 6.9019 -2.6037 0.0000 1.4225 1.1535 2.9525 12.5881 0.0000 -0.0001 4.9483 0.4299 3.0264 12.3432 -0.0001 0.0000 -3.3594 0.2137 1.5393 25.8329 0.0001 0.0001 12.5192 7.9722 -5.2987 11.7667 -0.0000 -0.0000 14.9072 -14.1441 -0.3639 19.7459 -1.4803 6.0001 -32.3572 -86.1910 -146.0921 11.2841 -0.0001 -0.0000 33.0340 73.8708 34.1540 33.0000 0.0000 -0.0000 -87.6681 -17.1319 -24.0395 25.2001 0.0001 -0.0000 12.8595 1.5532 18.3587 19.7461 -1.4803 -6.0000 -83.1216 77.2428 95.4704 11.2842 -0.0000 -0.0001 -74.7385 -69.6569 83.4480 33.0001 0.0001 0.0001 -108.1095 17.1044 23.0650 25.1997 0.0001 0.0003 12.2982 10.3537 -7.4738
